<svg width="72" height="72" viewBox="0 0 72 72" fill="none" xmlns="http://www.w3.org/2000/svg">
<g clip-path="url(#clip0_304_4)">
<path d="M61.1842 0H10.8158C4.84238 0 0 4.84238 0 10.8158V61.1842C0 67.1576 4.84238 72 10.8158 72H61.1842C67.1576 72 72 67.1576 72 61.1842V10.8158C72 4.84238 67.1576 0 61.1842 0Z" fill="#E31D93"/>
<path d="M27.007 28.8804H13.443C9.90561 28.8804 7.03796 31.7481 7.03796 35.2855V35.3474C7.03796 38.8848 9.90561 41.7524 13.443 41.7524H27.007C30.5444 41.7524 33.4121 38.8848 33.4121 35.3474V35.2855C33.4121 31.7481 30.5444 28.8804 27.007 28.8804Z" fill="white"/>
<path d="M58.5569 28.8804H44.993C41.4555 28.8804 38.5879 31.7481 38.5879 35.2855V35.3474C38.5879 38.8848 41.4555 41.7524 44.993 41.7524H58.5569C62.0944 41.7524 64.962 38.8848 64.962 35.3474V35.2855C64.962 31.7481 62.0944 28.8804 58.5569 28.8804Z" fill="white"/>
<path d="M27.0661 41.6624C30.5709 41.6624 33.4121 38.8212 33.4121 35.3165C33.4121 31.8117 30.5709 28.9705 27.0661 28.9705C23.5613 28.9705 20.7201 31.8117 20.7201 35.3165C20.7201 38.8212 23.5613 41.6624 27.0661 41.6624Z" fill="#241F20"/>
<path d="M58.616 41.6624C62.1208 41.6624 64.962 38.8212 64.962 35.3165C64.962 31.8117 62.1208 28.9705 58.616 28.9705C55.1112 28.9705 52.27 31.8117 52.27 35.3165C52.27 38.8212 55.1112 41.6624 58.616 41.6624Z" fill="#241F20"/>
</g>
<defs>
<clipPath id="clip0_304_4">
<rect width="72" height="72" fill="white"/>
</clipPath>
</defs>
</svg>
